<svg xmlns="http://www.w3.org/2000/svg" fill="#fff" viewBox="0 0 32 32" width="512px" height="512px"><path d="M25.372,23.279c-2.507-1.79-4.909-3.792-7.238-6.001c2.602-2.673,5.117-5.613,7.566-8.878 c0.497-0.663,0.362-1.604-0.3-2.101c-0.664-0.495-1.603-0.362-2.101,0.3c-2.366,3.155-4.792,5.993-7.3,8.57 c-2.507-2.577-4.934-5.415-7.3-8.57C8.203,5.938,7.264,5.805,6.6,6.3C5.938,6.797,5.803,7.737,6.3,8.4 c2.449,3.265,4.964,6.205,7.567,8.878c-2.329,2.209-4.731,4.211-7.238,6.001c-0.674,0.481-0.83,1.418-0.349,2.093 C6.572,25.782,7.033,26,7.501,26c0.302,0,0.606-0.091,0.871-0.279c2.646-1.89,5.177-4.003,7.628-6.333 c2.451,2.331,4.982,4.443,7.628,6.333C23.893,25.909,24.197,26,24.499,26c0.468,0,0.929-0.219,1.222-0.628 C26.202,24.697,26.046,23.761,25.372,23.279z"/></svg>